<svg xmlns="http://www.w3.org/2000/svg" version="1.1" xmlns:xlink="http://www.w3.org/1999/xlink" xmlns:svgjs="http://svgjs.dev/svgjs" width="1440" height="560" preserveAspectRatio="none" viewBox="0 0 1440 560">
    <g mask="url(&quot;#SvgjsMask1024&quot;)" fill="none">
        <rect width="1440" height="560" x="0" y="0" fill="rgba(243, 244, 246, 1)"></rect>
        <path d="M-66.01 382.85L-66.01 382.85" stroke="rgba(202, 202, 202, 1)" stroke-width="1.5"></path>
        <path d="M-66.01 382.85L56.58 406.03" stroke="rgba(202, 202, 202, 1)" stroke-width="1.5"></path>
        <path d="M-66.01 382.85L-79.43 548.84" stroke="rgba(202, 202, 202, 1)" stroke-width="1.5"></path>
        <path d="M-66.01 382.85L40.6 562" stroke="rgba(202, 202, 202, 1)" stroke-width="1.5"></path>
        <path d="M-66.01 382.85L212.93 382.51" stroke="rgba(202, 202, 202, 1)" stroke-width="1.5"></path>
        <path d="M-66.01 382.85L239.85 490.29" stroke="rgba(202, 202, 202, 1)" stroke-width="1.5"></path>
        <path d="M-66.01 382.85L81.87 685.4" stroke="rgba(202, 202, 202, 1)" stroke-width="1.5"></path>
        <path d="M-79.43 548.84L-79.43 548.84" stroke="rgba(202, 202, 202, 1)" stroke-width="1.5"></path>
        <path d="M-79.43 548.84L40.6 562" stroke="rgba(202, 202, 202, 1)" stroke-width="1.5"></path>
        <path d="M-79.43 548.84L56.58 406.03" stroke="rgba(202, 202, 202, 1)" stroke-width="1.5"></path>
        <path d="M-79.43 548.84L81.87 685.4" stroke="rgba(202, 202, 202, 1)" stroke-width="1.5"></path>
        <path d="M-79.43 548.84L239.85 490.29" stroke="rgba(202, 202, 202, 1)" stroke-width="1.5"></path>
        <path d="M-79.43 548.84L212.93 382.51" stroke="rgba(202, 202, 202, 1)" stroke-width="1.5"></path>
        <path d="M56.58 406.03L56.58 406.03" stroke="rgba(202, 202, 202, 1)" stroke-width="1.5"></path>
        <path d="M56.58 406.03L40.6 562" stroke="rgba(202, 202, 202, 1)" stroke-width="1.5"></path>
        <path d="M40.6 562L40.6 562" stroke="rgba(202, 202, 202, 1)" stroke-width="1.5"></path>
        <path d="M40.6 562L81.87 685.4" stroke="rgba(202, 202, 202, 1)" stroke-width="1.5"></path>
        <path d="M81.87 685.4L81.87 685.4" stroke="rgba(202, 202, 202, 1)" stroke-width="1.5"></path>
        <path d="M81.87 685.4L244.92 661.47" stroke="rgba(202, 202, 202, 1)" stroke-width="1.5"></path>
        <path d="M212.93 382.51L212.93 382.51" stroke="rgba(202, 202, 202, 1)" stroke-width="1.5"></path>
        <path d="M212.93 382.51L239.85 490.29" stroke="rgba(202, 202, 202, 1)" stroke-width="1.5"></path>
        <path d="M212.93 382.51L364.87 347.22" stroke="rgba(202, 202, 202, 1)" stroke-width="1.5"></path>
        <path d="M212.93 382.51L56.58 406.03" stroke="rgba(202, 202, 202, 1)" stroke-width="1.5"></path>
        <path d="M212.93 382.51L408.86 492.71" stroke="rgba(202, 202, 202, 1)" stroke-width="1.5"></path>
        <path d="M239.85 490.29L239.85 490.29" stroke="rgba(202, 202, 202, 1)" stroke-width="1.5"></path>
        <path d="M239.85 490.29L408.86 492.71" stroke="rgba(202, 202, 202, 1)" stroke-width="1.5"></path>
        <path d="M239.85 490.29L244.92 661.47" stroke="rgba(202, 202, 202, 1)" stroke-width="1.5"></path>
        <path d="M239.85 490.29L364.87 347.22" stroke="rgba(202, 202, 202, 1)" stroke-width="1.5"></path>
        <path d="M239.85 490.29L56.58 406.03" stroke="rgba(202, 202, 202, 1)" stroke-width="1.5"></path>
        <path d="M239.85 490.29L40.6 562" stroke="rgba(202, 202, 202, 1)" stroke-width="1.5"></path>
        <path d="M244.92 661.47L244.92 661.47" stroke="rgba(202, 202, 202, 1)" stroke-width="1.5"></path>
        <path d="M244.92 661.47L350.02 687.98" stroke="rgba(202, 202, 202, 1)" stroke-width="1.5"></path>
        <path d="M244.92 661.47L40.6 562" stroke="rgba(202, 202, 202, 1)" stroke-width="1.5"></path>
        <path d="M364.87 347.22L364.87 347.22" stroke="rgba(202, 202, 202, 1)" stroke-width="1.5"></path>
        <path d="M364.87 347.22L495.42 393.81" stroke="rgba(202, 202, 202, 1)" stroke-width="1.5"></path>
        <path d="M364.87 347.22L408.86 492.71" stroke="rgba(202, 202, 202, 1)" stroke-width="1.5"></path>
        <path d="M364.87 347.22L543.94 489.24" stroke="rgba(202, 202, 202, 1)" stroke-width="1.5"></path>
        <path d="M364.87 347.22L56.58 406.03" stroke="rgba(202, 202, 202, 1)" stroke-width="1.5"></path>
        <path d="M408.86 492.71L408.86 492.71" stroke="rgba(202, 202, 202, 1)" stroke-width="1.5"></path>
        <path d="M408.86 492.71L495.42 393.81" stroke="rgba(202, 202, 202, 1)" stroke-width="1.5"></path>
        <path d="M350.02 687.98L350.02 687.98" stroke="rgba(202, 202, 202, 1)" stroke-width="1.5"></path>
        <path d="M350.02 687.98L526.7 698.81" stroke="rgba(202, 202, 202, 1)" stroke-width="1.5"></path>
        <path d="M495.42 393.81L495.42 393.81" stroke="rgba(202, 202, 202, 1)" stroke-width="1.5"></path>
        <path d="M495.42 393.81L543.94 489.24" stroke="rgba(202, 202, 202, 1)" stroke-width="1.5"></path>
        <path d="M543.94 489.24L543.94 489.24" stroke="rgba(202, 202, 202, 1)" stroke-width="1.5"></path>
        <path d="M543.94 489.24L408.86 492.71" stroke="rgba(202, 202, 202, 1)" stroke-width="1.5"></path>
        <path d="M543.94 489.24L701.95 488.81" stroke="rgba(202, 202, 202, 1)" stroke-width="1.5"></path>
        <path d="M543.94 489.24L706.45 402.12" stroke="rgba(202, 202, 202, 1)" stroke-width="1.5"></path>
        <path d="M543.94 489.24L526.7 698.81" stroke="rgba(202, 202, 202, 1)" stroke-width="1.5"></path>
        <path d="M526.7 698.81L526.7 698.81" stroke="rgba(202, 202, 202, 1)" stroke-width="1.5"></path>
        <path d="M526.7 698.81L668.35 690.67" stroke="rgba(202, 202, 202, 1)" stroke-width="1.5"></path>
        <path d="M526.7 698.81L408.86 492.71" stroke="rgba(202, 202, 202, 1)" stroke-width="1.5"></path>
        <path d="M526.7 698.81L701.95 488.81" stroke="rgba(202, 202, 202, 1)" stroke-width="1.5"></path>
        <path d="M526.7 698.81L244.92 661.47" stroke="rgba(202, 202, 202, 1)" stroke-width="1.5"></path>
        <path d="M698.4 246.7L698.4 246.7" stroke="rgba(202, 202, 202, 1)" stroke-width="1.5"></path>
        <path d="M698.4 246.7L798.36 341.66" stroke="rgba(202, 202, 202, 1)" stroke-width="1.5"></path>
        <path d="M698.4 246.7L706.45 402.12" stroke="rgba(202, 202, 202, 1)" stroke-width="1.5"></path>
        <path d="M698.4 246.7L857.8 201.76" stroke="rgba(202, 202, 202, 1)" stroke-width="1.5"></path>
        <path d="M706.45 402.12L706.45 402.12" stroke="rgba(202, 202, 202, 1)" stroke-width="1.5"></path>
        <path d="M706.45 402.12L701.95 488.81" stroke="rgba(202, 202, 202, 1)" stroke-width="1.5"></path>
        <path d="M706.45 402.12L798.36 341.66" stroke="rgba(202, 202, 202, 1)" stroke-width="1.5"></path>
        <path d="M701.95 488.81L701.95 488.81" stroke="rgba(202, 202, 202, 1)" stroke-width="1.5"></path>
        <path d="M668.35 690.67L668.35 690.67" stroke="rgba(202, 202, 202, 1)" stroke-width="1.5"></path>
        <path d="M668.35 690.67L701.95 488.81" stroke="rgba(202, 202, 202, 1)" stroke-width="1.5"></path>
        <path d="M668.35 690.67L543.94 489.24" stroke="rgba(202, 202, 202, 1)" stroke-width="1.5"></path>
        <path d="M668.35 690.67L706.45 402.12" stroke="rgba(202, 202, 202, 1)" stroke-width="1.5"></path>
        <path d="M668.35 690.67L982.06 693.02" stroke="rgba(202, 202, 202, 1)" stroke-width="1.5"></path>
        <path d="M857.8 201.76L857.8 201.76" stroke="rgba(202, 202, 202, 1)" stroke-width="1.5"></path>
        <path d="M857.8 201.76L950.88 105.38" stroke="rgba(202, 202, 202, 1)" stroke-width="1.5"></path>
        <path d="M857.8 201.76L1001.18 212.62" stroke="rgba(202, 202, 202, 1)" stroke-width="1.5"></path>
        <path d="M857.8 201.76L798.36 341.66" stroke="rgba(202, 202, 202, 1)" stroke-width="1.5"></path>
        <path d="M798.36 341.66L798.36 341.66" stroke="rgba(202, 202, 202, 1)" stroke-width="1.5"></path>
        <path d="M798.36 341.66L701.95 488.81" stroke="rgba(202, 202, 202, 1)" stroke-width="1.5"></path>
        <path d="M798.36 341.66L1001.18 212.62" stroke="rgba(202, 202, 202, 1)" stroke-width="1.5"></path>
        <path d="M798.36 341.66L980.62 533.45" stroke="rgba(202, 202, 202, 1)" stroke-width="1.5"></path>
        <path d="M1010.58 -42.8L1010.58 -42.8" stroke="rgba(202, 202, 202, 1)" stroke-width="1.5"></path>
        <path d="M1010.58 -42.8L1135.56 -38.22" stroke="rgba(202, 202, 202, 1)" stroke-width="1.5"></path>
        <path d="M1010.58 -42.8L950.88 105.38" stroke="rgba(202, 202, 202, 1)" stroke-width="1.5"></path>
        <path d="M1010.58 -42.8L1151.03 68.33" stroke="rgba(202, 202, 202, 1)" stroke-width="1.5"></path>
        <path d="M1010.58 -42.8L1001.18 212.62" stroke="rgba(202, 202, 202, 1)" stroke-width="1.5"></path>
        <path d="M1010.58 -42.8L1090.72 200.41" stroke="rgba(202, 202, 202, 1)" stroke-width="1.5"></path>
        <path d="M950.88 105.38L950.88 105.38" stroke="rgba(202, 202, 202, 1)" stroke-width="1.5"></path>
        <path d="M950.88 105.38L1001.18 212.62" stroke="rgba(202, 202, 202, 1)" stroke-width="1.5"></path>
        <path d="M950.88 105.38L1090.72 200.41" stroke="rgba(202, 202, 202, 1)" stroke-width="1.5"></path>
        <path d="M950.88 105.38L1151.03 68.33" stroke="rgba(202, 202, 202, 1)" stroke-width="1.5"></path>
        <path d="M950.88 105.38L1135.56 -38.22" stroke="rgba(202, 202, 202, 1)" stroke-width="1.5"></path>
        <path d="M1001.18 212.62L1001.18 212.62" stroke="rgba(202, 202, 202, 1)" stroke-width="1.5"></path>
        <path d="M1001.18 212.62L1090.72 200.41" stroke="rgba(202, 202, 202, 1)" stroke-width="1.5"></path>
        <path d="M1001.18 212.62L1151.03 68.33" stroke="rgba(202, 202, 202, 1)" stroke-width="1.5"></path>
        <path d="M980.62 533.45L980.62 533.45" stroke="rgba(202, 202, 202, 1)" stroke-width="1.5"></path>
        <path d="M980.62 533.45L982.06 693.02" stroke="rgba(202, 202, 202, 1)" stroke-width="1.5"></path>
        <path d="M980.62 533.45L1148.79 515.33" stroke="rgba(202, 202, 202, 1)" stroke-width="1.5"></path>
        <path d="M980.62 533.45L1110.05 391.16" stroke="rgba(202, 202, 202, 1)" stroke-width="1.5"></path>
        <path d="M980.62 533.45L1093.73 690.46" stroke="rgba(202, 202, 202, 1)" stroke-width="1.5"></path>
        <path d="M982.06 693.02L982.06 693.02" stroke="rgba(202, 202, 202, 1)" stroke-width="1.5"></path>
        <path d="M982.06 693.02L1093.73 690.46" stroke="rgba(202, 202, 202, 1)" stroke-width="1.5"></path>
        <path d="M982.06 693.02L1148.79 515.33" stroke="rgba(202, 202, 202, 1)" stroke-width="1.5"></path>
        <path d="M982.06 693.02L1250.4 696" stroke="rgba(202, 202, 202, 1)" stroke-width="1.5"></path>
        <path d="M982.06 693.02L1262.56 542.32" stroke="rgba(202, 202, 202, 1)" stroke-width="1.5"></path>
        <path d="M1135.56 -38.22L1135.56 -38.22" stroke="rgba(202, 202, 202, 1)" stroke-width="1.5"></path>
        <path d="M1135.56 -38.22L1151.03 68.33" stroke="rgba(202, 202, 202, 1)" stroke-width="1.5"></path>
        <path d="M1135.56 -38.22L1301.21 -88.34" stroke="rgba(202, 202, 202, 1)" stroke-width="1.5"></path>
        <path d="M1151.03 68.33L1151.03 68.33" stroke="rgba(202, 202, 202, 1)" stroke-width="1.5"></path>
        <path d="M1090.72 200.41L1090.72 200.41" stroke="rgba(202, 202, 202, 1)" stroke-width="1.5"></path>
        <path d="M1090.72 200.41L1151.03 68.33" stroke="rgba(202, 202, 202, 1)" stroke-width="1.5"></path>
        <path d="M1090.72 200.41L1255.78 219.06" stroke="rgba(202, 202, 202, 1)" stroke-width="1.5"></path>
        <path d="M1110.05 391.16L1110.05 391.16" stroke="rgba(202, 202, 202, 1)" stroke-width="1.5"></path>
        <path d="M1110.05 391.16L1148.79 515.33" stroke="rgba(202, 202, 202, 1)" stroke-width="1.5"></path>
        <path d="M1110.05 391.16L1298.56 403.18" stroke="rgba(202, 202, 202, 1)" stroke-width="1.5"></path>
        <path d="M1110.05 391.16L1090.72 200.41" stroke="rgba(202, 202, 202, 1)" stroke-width="1.5"></path>
        <path d="M1110.05 391.16L1001.18 212.62" stroke="rgba(202, 202, 202, 1)" stroke-width="1.5"></path>
        <path d="M1148.79 515.33L1148.79 515.33" stroke="rgba(202, 202, 202, 1)" stroke-width="1.5"></path>
        <path d="M1148.79 515.33L1262.56 542.32" stroke="rgba(202, 202, 202, 1)" stroke-width="1.5"></path>
        <path d="M1148.79 515.33L1093.73 690.46" stroke="rgba(202, 202, 202, 1)" stroke-width="1.5"></path>
        <path d="M1093.73 690.46L1093.73 690.46" stroke="rgba(202, 202, 202, 1)" stroke-width="1.5"></path>
        <path d="M1093.73 690.46L1250.4 696" stroke="rgba(202, 202, 202, 1)" stroke-width="1.5"></path>
        <path d="M1301.21 -88.34L1301.21 -88.34" stroke="rgba(202, 202, 202, 1)" stroke-width="1.5"></path>
        <path d="M1301.21 -88.34L1396.84 -96.87" stroke="rgba(202, 202, 202, 1)" stroke-width="1.5"></path>
        <path d="M1301.21 -88.34L1151.03 68.33" stroke="rgba(202, 202, 202, 1)" stroke-width="1.5"></path>
        <path d="M1301.21 -88.34L1410.33 108.58" stroke="rgba(202, 202, 202, 1)" stroke-width="1.5"></path>
        <path d="M1255.78 219.06L1255.78 219.06" stroke="rgba(202, 202, 202, 1)" stroke-width="1.5"></path>
        <path d="M1255.78 219.06L1151.03 68.33" stroke="rgba(202, 202, 202, 1)" stroke-width="1.5"></path>
        <path d="M1255.78 219.06L1298.56 403.18" stroke="rgba(202, 202, 202, 1)" stroke-width="1.5"></path>
        <path d="M1255.78 219.06L1410.33 108.58" stroke="rgba(202, 202, 202, 1)" stroke-width="1.5"></path>
        <path d="M1255.78 219.06L1110.05 391.16" stroke="rgba(202, 202, 202, 1)" stroke-width="1.5"></path>
        <path d="M1255.78 219.06L1001.18 212.62" stroke="rgba(202, 202, 202, 1)" stroke-width="1.5"></path>
        <path d="M1298.56 403.18L1298.56 403.18" stroke="rgba(202, 202, 202, 1)" stroke-width="1.5"></path>
        <path d="M1298.56 403.18L1431.24 412.35" stroke="rgba(202, 202, 202, 1)" stroke-width="1.5"></path>
        <path d="M1298.56 403.18L1262.56 542.32" stroke="rgba(202, 202, 202, 1)" stroke-width="1.5"></path>
        <path d="M1298.56 403.18L1148.79 515.33" stroke="rgba(202, 202, 202, 1)" stroke-width="1.5"></path>
        <path d="M1262.56 542.32L1262.56 542.32" stroke="rgba(202, 202, 202, 1)" stroke-width="1.5"></path>
        <path d="M1262.56 542.32L1250.4 696" stroke="rgba(202, 202, 202, 1)" stroke-width="1.5"></path>
        <path d="M1262.56 542.32L1448.31 538.57" stroke="rgba(202, 202, 202, 1)" stroke-width="1.5"></path>
        <path d="M1262.56 542.32L1398.62 688.28" stroke="rgba(202, 202, 202, 1)" stroke-width="1.5"></path>
        <path d="M1250.4 696L1250.4 696" stroke="rgba(202, 202, 202, 1)" stroke-width="1.5"></path>
        <path d="M1250.4 696L1398.62 688.28" stroke="rgba(202, 202, 202, 1)" stroke-width="1.5"></path>
        <path d="M1250.4 696L1148.79 515.33" stroke="rgba(202, 202, 202, 1)" stroke-width="1.5"></path>
        <path d="M1250.4 696L1448.31 538.57" stroke="rgba(202, 202, 202, 1)" stroke-width="1.5"></path>
        <path d="M1396.84 -96.87L1396.84 -96.87" stroke="rgba(202, 202, 202, 1)" stroke-width="1.5"></path>
        <path d="M1396.84 -96.87L1593.87 -53.91" stroke="rgba(202, 202, 202, 1)" stroke-width="1.5"></path>
        <path d="M1396.84 -96.87L1410.33 108.58" stroke="rgba(202, 202, 202, 1)" stroke-width="1.5"></path>
        <path d="M1396.84 -96.87L1135.56 -38.22" stroke="rgba(202, 202, 202, 1)" stroke-width="1.5"></path>
        <path d="M1396.84 -96.87L1604.9 89.92" stroke="rgba(202, 202, 202, 1)" stroke-width="1.5"></path>
        <path d="M1410.33 108.58L1410.33 108.58" stroke="rgba(202, 202, 202, 1)" stroke-width="1.5"></path>
        <path d="M1410.33 108.58L1604.9 89.92" stroke="rgba(202, 202, 202, 1)" stroke-width="1.5"></path>
        <path d="M1410.33 108.58L1559.48 242.94" stroke="rgba(202, 202, 202, 1)" stroke-width="1.5"></path>
        <path d="M1410.33 108.58L1593.87 -53.91" stroke="rgba(202, 202, 202, 1)" stroke-width="1.5"></path>
        <path d="M1431.24 412.35L1431.24 412.35" stroke="rgba(202, 202, 202, 1)" stroke-width="1.5"></path>
        <path d="M1431.24 412.35L1543.31 386.62" stroke="rgba(202, 202, 202, 1)" stroke-width="1.5"></path>
        <path d="M1431.24 412.35L1448.31 538.57" stroke="rgba(202, 202, 202, 1)" stroke-width="1.5"></path>
        <path d="M1431.24 412.35L1588.03 533.61" stroke="rgba(202, 202, 202, 1)" stroke-width="1.5"></path>
        <path d="M1448.31 538.57L1448.31 538.57" stroke="rgba(202, 202, 202, 1)" stroke-width="1.5"></path>
        <path d="M1448.31 538.57L1588.03 533.61" stroke="rgba(202, 202, 202, 1)" stroke-width="1.5"></path>
        <path d="M1448.31 538.57L1398.62 688.28" stroke="rgba(202, 202, 202, 1)" stroke-width="1.5"></path>
        <path d="M1398.62 688.28L1398.62 688.28" stroke="rgba(202, 202, 202, 1)" stroke-width="1.5"></path>
        <path d="M1398.62 688.28L1562.89 687.45" stroke="rgba(202, 202, 202, 1)" stroke-width="1.5"></path>
        <path d="M1398.62 688.28L1588.03 533.61" stroke="rgba(202, 202, 202, 1)" stroke-width="1.5"></path>
        <path d="M1593.87 -53.91L1593.87 -53.91" stroke="rgba(202, 202, 202, 1)" stroke-width="1.5"></path>
        <path d="M1593.87 -53.91L1604.9 89.92" stroke="rgba(202, 202, 202, 1)" stroke-width="1.5"></path>
        <path d="M1593.87 -53.91L1301.21 -88.34" stroke="rgba(202, 202, 202, 1)" stroke-width="1.5"></path>
        <path d="M1593.87 -53.91L1559.48 242.94" stroke="rgba(202, 202, 202, 1)" stroke-width="1.5"></path>
        <path d="M1593.87 -53.91L1255.78 219.06" stroke="rgba(202, 202, 202, 1)" stroke-width="1.5"></path>
        <path d="M1604.9 89.92L1604.9 89.92" stroke="rgba(202, 202, 202, 1)" stroke-width="1.5"></path>
        <path d="M1604.9 89.92L1559.48 242.94" stroke="rgba(202, 202, 202, 1)" stroke-width="1.5"></path>
        <path d="M1604.9 89.92L1543.31 386.62" stroke="rgba(202, 202, 202, 1)" stroke-width="1.5"></path>
        <path d="M1604.9 89.92L1301.21 -88.34" stroke="rgba(202, 202, 202, 1)" stroke-width="1.5"></path>
        <path d="M1559.48 242.94L1559.48 242.94" stroke="rgba(202, 202, 202, 1)" stroke-width="1.5"></path>
        <path d="M1559.48 242.94L1543.31 386.62" stroke="rgba(202, 202, 202, 1)" stroke-width="1.5"></path>
        <path d="M1559.48 242.94L1431.24 412.35" stroke="rgba(202, 202, 202, 1)" stroke-width="1.5"></path>
        <path d="M1559.48 242.94L1588.03 533.61" stroke="rgba(202, 202, 202, 1)" stroke-width="1.5"></path>
        <path d="M1543.31 386.62L1543.31 386.62" stroke="rgba(202, 202, 202, 1)" stroke-width="1.5"></path>
        <path d="M1543.31 386.62L1588.03 533.61" stroke="rgba(202, 202, 202, 1)" stroke-width="1.5"></path>
        <path d="M1543.31 386.62L1448.31 538.57" stroke="rgba(202, 202, 202, 1)" stroke-width="1.5"></path>
        <path d="M1543.31 386.62L1298.56 403.18" stroke="rgba(202, 202, 202, 1)" stroke-width="1.5"></path>
        <path d="M1543.31 386.62L1562.89 687.45" stroke="rgba(202, 202, 202, 1)" stroke-width="1.5"></path>
        <path d="M1588.03 533.61L1588.03 533.61" stroke="rgba(202, 202, 202, 1)" stroke-width="1.5"></path>
        <path d="M1588.03 533.61L1562.89 687.45" stroke="rgba(202, 202, 202, 1)" stroke-width="1.5"></path>
        <path d="M1562.89 687.45L1562.89 687.45" stroke="rgba(202, 202, 202, 1)" stroke-width="1.5"></path>
        <circle r="5" cx="-66.01" cy="382.85" fill="rgba(202, 202, 202, 1)"></circle>
        <circle r="5" cx="-79.43" cy="548.84" fill="rgba(202, 202, 202, 1)"></circle>
        <circle r="5" cx="56.58" cy="406.03" fill="rgba(202, 202, 202, 1)"></circle>
        <circle r="5" cx="40.6" cy="562" fill="rgba(202, 202, 202, 1)"></circle>
        <circle r="5" cx="81.87" cy="685.4" fill="rgba(202, 202, 202, 1)"></circle>
        <circle r="5" cx="212.93" cy="382.51" fill="rgba(202, 202, 202, 1)"></circle>
        <circle r="5" cx="239.85" cy="490.29" fill="rgba(202, 202, 202, 1)"></circle>
        <circle r="5" cx="244.92" cy="661.47" fill="rgba(202, 202, 202, 1)"></circle>
        <circle r="5" cx="364.87" cy="347.22" fill="rgba(202, 202, 202, 1)"></circle>
        <circle r="5" cx="408.86" cy="492.71" fill="rgba(202, 202, 202, 1)"></circle>
        <circle r="5" cx="350.02" cy="687.98" fill="rgba(202, 202, 202, 1)"></circle>
        <circle r="5" cx="495.42" cy="393.81" fill="rgba(202, 202, 202, 1)"></circle>
        <circle r="5" cx="543.94" cy="489.24" fill="rgba(202, 202, 202, 1)"></circle>
        <circle r="5" cx="526.7" cy="698.81" fill="rgba(202, 202, 202, 1)"></circle>
        <circle r="5" cx="698.4" cy="246.7" fill="rgba(202, 202, 202, 1)"></circle>
        <circle r="5" cx="706.45" cy="402.12" fill="rgba(202, 202, 202, 1)"></circle>
        <circle r="5" cx="701.95" cy="488.81" fill="rgba(202, 202, 202, 1)"></circle>
        <circle r="5" cx="668.35" cy="690.67" fill="rgba(202, 202, 202, 1)"></circle>
        <circle r="5" cx="857.8" cy="201.76" fill="rgba(202, 202, 202, 1)"></circle>
        <circle r="5" cx="798.36" cy="341.66" fill="rgba(202, 202, 202, 1)"></circle>
        <circle r="5" cx="1010.58" cy="-42.8" fill="rgba(202, 202, 202, 1)"></circle>
        <circle r="5" cx="950.88" cy="105.38" fill="rgba(202, 202, 202, 1)"></circle>
        <circle r="5" cx="1001.18" cy="212.62" fill="rgba(202, 202, 202, 1)"></circle>
        <circle r="5" cx="980.62" cy="533.45" fill="rgba(202, 202, 202, 1)"></circle>
        <circle r="5" cx="982.06" cy="693.02" fill="rgba(202, 202, 202, 1)"></circle>
        <circle r="5" cx="1135.56" cy="-38.22" fill="rgba(202, 202, 202, 1)"></circle>
        <circle r="5" cx="1151.03" cy="68.33" fill="rgba(202, 202, 202, 1)"></circle>
        <circle r="5" cx="1090.72" cy="200.41" fill="rgba(202, 202, 202, 1)"></circle>
        <circle r="5" cx="1110.05" cy="391.16" fill="rgba(202, 202, 202, 1)"></circle>
        <circle r="5" cx="1148.79" cy="515.33" fill="rgba(202, 202, 202, 1)"></circle>
        <circle r="5" cx="1093.73" cy="690.46" fill="rgba(202, 202, 202, 1)"></circle>
        <circle r="5" cx="1301.21" cy="-88.34" fill="rgba(202, 202, 202, 1)"></circle>
        <circle r="5" cx="1255.78" cy="219.06" fill="rgba(202, 202, 202, 1)"></circle>
        <circle r="5" cx="1298.56" cy="403.18" fill="rgba(202, 202, 202, 1)"></circle>
        <circle r="5" cx="1262.56" cy="542.32" fill="rgba(202, 202, 202, 1)"></circle>
        <circle r="5" cx="1250.4" cy="696" fill="rgba(202, 202, 202, 1)"></circle>
        <circle r="5" cx="1396.84" cy="-96.87" fill="rgba(202, 202, 202, 1)"></circle>
        <circle r="5" cx="1410.33" cy="108.58" fill="rgba(202, 202, 202, 1)"></circle>
        <circle r="5" cx="1431.24" cy="412.35" fill="rgba(202, 202, 202, 1)"></circle>
        <circle r="5" cx="1448.31" cy="538.57" fill="rgba(202, 202, 202, 1)"></circle>
        <circle r="5" cx="1398.62" cy="688.28" fill="rgba(202, 202, 202, 1)"></circle>
        <circle r="5" cx="1593.87" cy="-53.91" fill="rgba(202, 202, 202, 1)"></circle>
        <circle r="5" cx="1604.9" cy="89.92" fill="rgba(202, 202, 202, 1)"></circle>
        <circle r="5" cx="1559.48" cy="242.94" fill="rgba(202, 202, 202, 1)"></circle>
        <circle r="5" cx="1543.31" cy="386.62" fill="rgba(202, 202, 202, 1)"></circle>
        <circle r="5" cx="1588.03" cy="533.61" fill="rgba(202, 202, 202, 1)"></circle>
        <circle r="5" cx="1562.89" cy="687.45" fill="rgba(202, 202, 202, 1)"></circle>
        <path d="M-102.97 698.6L-102.97 698.6" stroke="hsl(0, 0%, 100%)" stroke-width="1.5"></path>
        <path d="M-102.97 698.6L46.55 644.74" stroke="hsl(0, 0%, 100%)" stroke-width="1.5"></path>
        <path d="M-102.97 698.6L77.89 516.04" stroke="hsl(0, 0%, 100%)" stroke-width="1.5"></path>
        <path d="M-102.97 698.6L205.91 639.61" stroke="hsl(0, 0%, 100%)" stroke-width="1.5"></path>
        <path d="M-102.97 698.6L221.3 511.23" stroke="hsl(0, 0%, 100%)" stroke-width="1.5"></path>
        <path d="M-102.97 698.6L353.3 638.22" stroke="hsl(0, 0%, 100%)" stroke-width="1.5"></path>
        <path d="M-102.97 698.6L408.38 557.62" stroke="hsl(0, 0%, 100%)" stroke-width="1.5"></path>
        <path d="M205.91 639.61L205.91 639.61" stroke="hsl(0, 0%, 100%)" stroke-width="1.5"></path>
        <path d="M205.91 639.61L221.3 511.23" stroke="hsl(0, 0%, 100%)" stroke-width="1.5"></path>
        <path d="M205.91 639.61L353.3 638.22" stroke="hsl(0, 0%, 100%)" stroke-width="1.5"></path>
        <path d="M205.91 639.61L46.55 644.74" stroke="hsl(0, 0%, 100%)" stroke-width="1.5"></path>
        <path d="M205.91 639.61L77.89 516.04" stroke="hsl(0, 0%, 100%)" stroke-width="1.5"></path>
        <path d="M512.57 659.76L512.57 659.76" stroke="hsl(0, 0%, 100%)" stroke-width="1.5"></path>
        <path d="M512.57 659.76L408.38 557.62" stroke="hsl(0, 0%, 100%)" stroke-width="1.5"></path>
        <path d="M512.57 659.76L526.43 512.87" stroke="hsl(0, 0%, 100%)" stroke-width="1.5"></path>
        <path d="M512.57 659.76L353.3 638.22" stroke="hsl(0, 0%, 100%)" stroke-width="1.5"></path>
        <path d="M512.57 659.76L689.71 685.84" stroke="hsl(0, 0%, 100%)" stroke-width="1.5"></path>
        <path d="M822.84 372.7L822.84 372.7" stroke="hsl(0, 0%, 100%)" stroke-width="1.5"></path>
        <path d="M822.84 372.7L966.24 351.44" stroke="hsl(0, 0%, 100%)" stroke-width="1.5"></path>
        <path d="M822.84 372.7L788.34 536.46" stroke="hsl(0, 0%, 100%)" stroke-width="1.5"></path>
        <path d="M940.7 672.6L940.7 672.6" stroke="hsl(0, 0%, 100%)" stroke-width="1.5"></path>
        <path d="M940.7 672.6L861.81 652.65" stroke="hsl(0, 0%, 100%)" stroke-width="1.5"></path>
        <path d="M940.7 672.6L982.58 547.67" stroke="hsl(0, 0%, 100%)" stroke-width="1.5"></path>
        <path d="M940.7 672.6L1119.3 676" stroke="hsl(0, 0%, 100%)" stroke-width="1.5"></path>
        <path d="M940.7 672.6L788.34 536.46" stroke="hsl(0, 0%, 100%)" stroke-width="1.5"></path>
        <path d="M940.7 672.6L689.71 685.84" stroke="hsl(0, 0%, 100%)" stroke-width="1.5"></path>
        <path d="M1141.35 516.71L1141.35 516.71" stroke="hsl(0, 0%, 100%)" stroke-width="1.5"></path>
        <path d="M1141.35 516.71L1278.82 533.02" stroke="hsl(0, 0%, 100%)" stroke-width="1.5"></path>
        <path d="M1141.35 516.71L1128.74 374.4" stroke="hsl(0, 0%, 100%)" stroke-width="1.5"></path>
        <path d="M1141.35 516.71L1119.3 676" stroke="hsl(0, 0%, 100%)" stroke-width="1.5"></path>
        <path d="M1141.35 516.71L982.58 547.67" stroke="hsl(0, 0%, 100%)" stroke-width="1.5"></path>
        <path d="M1141.35 516.71L1282.03 404.7" stroke="hsl(0, 0%, 100%)" stroke-width="1.5"></path>
        <path d="M1141.35 516.71L966.24 351.44" stroke="hsl(0, 0%, 100%)" stroke-width="1.5"></path>
        <path d="M1607.44 -49.17L1607.44 -49.17" stroke="hsl(0, 0%, 100%)" stroke-width="1.5"></path>
        <path d="M1607.44 -49.17L1546.61 77.47" stroke="hsl(0, 0%, 100%)" stroke-width="1.5"></path>
        <path d="M1607.44 -49.17L1419.51 -65.53" stroke="hsl(0, 0%, 100%)" stroke-width="1.5"></path>
        <path d="M1580.57 371.85L1580.57 371.85" stroke="hsl(0, 0%, 100%)" stroke-width="1.5"></path>
        <path d="M1580.57 371.85L1456.73 374.23" stroke="hsl(0, 0%, 100%)" stroke-width="1.5"></path>
        <path d="M1580.57 371.85L1588.91 208.57" stroke="hsl(0, 0%, 100%)" stroke-width="1.5"></path>
        <path d="M1580.57 371.85L1389.21 233.43" stroke="hsl(0, 0%, 100%)" stroke-width="1.5"></path>
        <path d="M1580.57 371.85L1403.58 528.48" stroke="hsl(0, 0%, 100%)" stroke-width="1.5"></path>
        <path d="M77.89 516.04L77.89 516.04" stroke="hsl(0, 0%, 100%)" stroke-width="1.5"></path>
        <path d="M77.89 516.04L46.55 644.74" stroke="hsl(0, 0%, 100%)" stroke-width="1.5"></path>
        <path d="M77.89 516.04L221.3 511.23" stroke="hsl(0, 0%, 100%)" stroke-width="1.5"></path>
        <path d="M77.89 516.04L353.3 638.22" stroke="hsl(0, 0%, 100%)" stroke-width="1.5"></path>
        <path d="M77.89 516.04L408.38 557.62" stroke="hsl(0, 0%, 100%)" stroke-width="1.5"></path>
        <path d="M46.55 644.74L46.55 644.74" stroke="hsl(0, 0%, 100%)" stroke-width="1.5"></path>
        <path d="M221.3 511.23L221.3 511.23" stroke="hsl(0, 0%, 100%)" stroke-width="1.5"></path>
        <path d="M221.3 511.23L353.3 638.22" stroke="hsl(0, 0%, 100%)" stroke-width="1.5"></path>
        <path d="M408.38 557.62L408.38 557.62" stroke="hsl(0, 0%, 100%)" stroke-width="1.5"></path>
        <path d="M408.38 557.62L353.3 638.22" stroke="hsl(0, 0%, 100%)" stroke-width="1.5"></path>
        <path d="M408.38 557.62L526.43 512.87" stroke="hsl(0, 0%, 100%)" stroke-width="1.5"></path>
        <path d="M408.38 557.62L221.3 511.23" stroke="hsl(0, 0%, 100%)" stroke-width="1.5"></path>
        <path d="M408.38 557.62L205.91 639.61" stroke="hsl(0, 0%, 100%)" stroke-width="1.5"></path>
        <path d="M353.3 638.22L353.3 638.22" stroke="hsl(0, 0%, 100%)" stroke-width="1.5"></path>
        <path d="M526.43 512.87L526.43 512.87" stroke="hsl(0, 0%, 100%)" stroke-width="1.5"></path>
        <path d="M526.43 512.87L675.08 520.01" stroke="hsl(0, 0%, 100%)" stroke-width="1.5"></path>
        <path d="M526.43 512.87L353.3 638.22" stroke="hsl(0, 0%, 100%)" stroke-width="1.5"></path>
        <path d="M675.08 520.01L675.08 520.01" stroke="hsl(0, 0%, 100%)" stroke-width="1.5"></path>
        <path d="M675.08 520.01L788.34 536.46" stroke="hsl(0, 0%, 100%)" stroke-width="1.5"></path>
        <path d="M675.08 520.01L689.71 685.84" stroke="hsl(0, 0%, 100%)" stroke-width="1.5"></path>
        <path d="M675.08 520.01L822.84 372.7" stroke="hsl(0, 0%, 100%)" stroke-width="1.5"></path>
        <path d="M675.08 520.01L512.57 659.76" stroke="hsl(0, 0%, 100%)" stroke-width="1.5"></path>
        <path d="M689.71 685.84L689.71 685.84" stroke="hsl(0, 0%, 100%)" stroke-width="1.5"></path>
        <path d="M689.71 685.84L861.81 652.65" stroke="hsl(0, 0%, 100%)" stroke-width="1.5"></path>
        <path d="M689.71 685.84L788.34 536.46" stroke="hsl(0, 0%, 100%)" stroke-width="1.5"></path>
        <path d="M788.34 536.46L788.34 536.46" stroke="hsl(0, 0%, 100%)" stroke-width="1.5"></path>
        <path d="M788.34 536.46L861.81 652.65" stroke="hsl(0, 0%, 100%)" stroke-width="1.5"></path>
        <path d="M861.81 652.65L861.81 652.65" stroke="hsl(0, 0%, 100%)" stroke-width="1.5"></path>
        <path d="M861.81 652.65L982.58 547.67" stroke="hsl(0, 0%, 100%)" stroke-width="1.5"></path>
        <path d="M861.81 652.65L675.08 520.01" stroke="hsl(0, 0%, 100%)" stroke-width="1.5"></path>
        <path d="M966.24 351.44L966.24 351.44" stroke="hsl(0, 0%, 100%)" stroke-width="1.5"></path>
        <path d="M966.24 351.44L1128.74 374.4" stroke="hsl(0, 0%, 100%)" stroke-width="1.5"></path>
        <path d="M982.58 547.67L982.58 547.67" stroke="hsl(0, 0%, 100%)" stroke-width="1.5"></path>
        <path d="M982.58 547.67L1119.3 676" stroke="hsl(0, 0%, 100%)" stroke-width="1.5"></path>
        <path d="M982.58 547.67L788.34 536.46" stroke="hsl(0, 0%, 100%)" stroke-width="1.5"></path>
        <path d="M1093.06 195.52L1093.06 195.52" stroke="hsl(0, 0%, 100%)" stroke-width="1.5"></path>
        <path d="M1093.06 195.52L1254.66 252.6" stroke="hsl(0, 0%, 100%)" stroke-width="1.5"></path>
        <path d="M1093.06 195.52L1128.74 374.4" stroke="hsl(0, 0%, 100%)" stroke-width="1.5"></path>
        <path d="M1093.06 195.52L966.24 351.44" stroke="hsl(0, 0%, 100%)" stroke-width="1.5"></path>
        <path d="M1093.06 195.52L1286.75 84.66" stroke="hsl(0, 0%, 100%)" stroke-width="1.5"></path>
        <path d="M1093.06 195.52L1282.03 404.7" stroke="hsl(0, 0%, 100%)" stroke-width="1.5"></path>
        <path d="M1128.74 374.4L1128.74 374.4" stroke="hsl(0, 0%, 100%)" stroke-width="1.5"></path>
        <path d="M1128.74 374.4L1282.03 404.7" stroke="hsl(0, 0%, 100%)" stroke-width="1.5"></path>
        <path d="M1119.3 676L1119.3 676" stroke="hsl(0, 0%, 100%)" stroke-width="1.5"></path>
        <path d="M1275.4 -76.74L1275.4 -76.74" stroke="hsl(0, 0%, 100%)" stroke-width="1.5"></path>
        <path d="M1275.4 -76.74L1419.51 -65.53" stroke="hsl(0, 0%, 100%)" stroke-width="1.5"></path>
        <path d="M1275.4 -76.74L1286.75 84.66" stroke="hsl(0, 0%, 100%)" stroke-width="1.5"></path>
        <path d="M1275.4 -76.74L1394.17 48.19" stroke="hsl(0, 0%, 100%)" stroke-width="1.5"></path>
        <path d="M1275.4 -76.74L1546.61 77.47" stroke="hsl(0, 0%, 100%)" stroke-width="1.5"></path>
        <path d="M1286.75 84.66L1286.75 84.66" stroke="hsl(0, 0%, 100%)" stroke-width="1.5"></path>
        <path d="M1286.75 84.66L1394.17 48.19" stroke="hsl(0, 0%, 100%)" stroke-width="1.5"></path>
        <path d="M1286.75 84.66L1254.66 252.6" stroke="hsl(0, 0%, 100%)" stroke-width="1.5"></path>
        <path d="M1286.75 84.66L1389.21 233.43" stroke="hsl(0, 0%, 100%)" stroke-width="1.5"></path>
        <path d="M1286.75 84.66L1419.51 -65.53" stroke="hsl(0, 0%, 100%)" stroke-width="1.5"></path>
        <path d="M1254.66 252.6L1254.66 252.6" stroke="hsl(0, 0%, 100%)" stroke-width="1.5"></path>
        <path d="M1254.66 252.6L1389.21 233.43" stroke="hsl(0, 0%, 100%)" stroke-width="1.5"></path>
        <path d="M1254.66 252.6L1282.03 404.7" stroke="hsl(0, 0%, 100%)" stroke-width="1.5"></path>
        <path d="M1282.03 404.7L1282.03 404.7" stroke="hsl(0, 0%, 100%)" stroke-width="1.5"></path>
        <path d="M1282.03 404.7L1278.82 533.02" stroke="hsl(0, 0%, 100%)" stroke-width="1.5"></path>
        <path d="M1282.03 404.7L1403.58 528.48" stroke="hsl(0, 0%, 100%)" stroke-width="1.5"></path>
        <path d="M1278.82 533.02L1278.82 533.02" stroke="hsl(0, 0%, 100%)" stroke-width="1.5"></path>
        <path d="M1278.82 533.02L1403.58 528.48" stroke="hsl(0, 0%, 100%)" stroke-width="1.5"></path>
        <path d="M1419.51 -65.53L1419.51 -65.53" stroke="hsl(0, 0%, 100%)" stroke-width="1.5"></path>
        <path d="M1419.51 -65.53L1394.17 48.19" stroke="hsl(0, 0%, 100%)" stroke-width="1.5"></path>
        <path d="M1419.51 -65.53L1546.61 77.47" stroke="hsl(0, 0%, 100%)" stroke-width="1.5"></path>
        <path d="M1394.17 48.19L1394.17 48.19" stroke="hsl(0, 0%, 100%)" stroke-width="1.5"></path>
        <path d="M1394.17 48.19L1546.61 77.47" stroke="hsl(0, 0%, 100%)" stroke-width="1.5"></path>
        <path d="M1389.21 233.43L1389.21 233.43" stroke="hsl(0, 0%, 100%)" stroke-width="1.5"></path>
        <path d="M1389.21 233.43L1456.73 374.23" stroke="hsl(0, 0%, 100%)" stroke-width="1.5"></path>
        <path d="M1456.73 374.23L1456.73 374.23" stroke="hsl(0, 0%, 100%)" stroke-width="1.5"></path>
        <path d="M1403.58 528.48L1403.58 528.48" stroke="hsl(0, 0%, 100%)" stroke-width="1.5"></path>
        <path d="M1416.21 659.7L1416.21 659.7" stroke="hsl(0, 0%, 100%)" stroke-width="1.5"></path>
        <path d="M1416.21 659.7L1403.58 528.48" stroke="hsl(0, 0%, 100%)" stroke-width="1.5"></path>
        <path d="M1416.21 659.7L1278.82 533.02" stroke="hsl(0, 0%, 100%)" stroke-width="1.5"></path>
        <path d="M1416.21 659.7L1606.62 696.93" stroke="hsl(0, 0%, 100%)" stroke-width="1.5"></path>
        <path d="M1416.21 659.7L1282.03 404.7" stroke="hsl(0, 0%, 100%)" stroke-width="1.5"></path>
        <path d="M1546.61 77.47L1546.61 77.47" stroke="hsl(0, 0%, 100%)" stroke-width="1.5"></path>
        <path d="M1546.61 77.47L1588.91 208.57" stroke="hsl(0, 0%, 100%)" stroke-width="1.5"></path>
        <path d="M1588.91 208.57L1588.91 208.57" stroke="hsl(0, 0%, 100%)" stroke-width="1.5"></path>
        <path d="M1588.91 208.57L1389.21 233.43" stroke="hsl(0, 0%, 100%)" stroke-width="1.5"></path>
        <path d="M1588.91 208.57L1456.73 374.23" stroke="hsl(0, 0%, 100%)" stroke-width="1.5"></path>
        <path d="M1606.62 696.93L1606.62 696.93" stroke="hsl(0, 0%, 100%)" stroke-width="1.5"></path>
        <path d="M1606.62 696.93L1403.58 528.48" stroke="hsl(0, 0%, 100%)" stroke-width="1.5"></path>
        <circle r="25" cx="-102.97" cy="698.6" fill="url(&quot;#SvgjsRadialGradient1025&quot;)"></circle>
        <circle r="25" cx="205.91" cy="639.61" fill="url(&quot;#SvgjsRadialGradient1025&quot;)"></circle>
        <circle r="25" cx="512.57" cy="659.76" fill="url(&quot;#SvgjsRadialGradient1025&quot;)"></circle>
        <circle r="25" cx="822.84" cy="372.7" fill="url(&quot;#SvgjsRadialGradient1025&quot;)"></circle>
        <circle r="25" cx="940.7" cy="672.6" fill="url(&quot;#SvgjsRadialGradient1025&quot;)"></circle>
        <circle r="25" cx="1141.35" cy="516.71" fill="url(&quot;#SvgjsRadialGradient1025&quot;)"></circle>
        <circle r="25" cx="1607.44" cy="-49.17" fill="url(&quot;#SvgjsRadialGradient1025&quot;)"></circle>
        <circle r="25" cx="1580.57" cy="371.85" fill="url(&quot;#SvgjsRadialGradient1025&quot;)"></circle>
        <circle r="5" cx="77.89" cy="516.04" fill="#eaeaea"></circle>
        <circle r="5" cx="46.55" cy="644.74" fill="#eaeaea"></circle>
        <circle r="5" cx="221.3" cy="511.23" fill="#eaeaea"></circle>
        <circle r="5" cx="408.38" cy="557.62" fill="#eaeaea"></circle>
        <circle r="5" cx="353.3" cy="638.22" fill="#eaeaea"></circle>
        <circle r="5" cx="526.43" cy="512.87" fill="#eaeaea"></circle>
        <circle r="5" cx="675.08" cy="520.01" fill="#eaeaea"></circle>
        <circle r="5" cx="689.71" cy="685.84" fill="#eaeaea"></circle>
        <circle r="5" cx="788.34" cy="536.46" fill="#eaeaea"></circle>
        <circle r="5" cx="861.81" cy="652.65" fill="#eaeaea"></circle>
        <circle r="5" cx="966.24" cy="351.44" fill="#eaeaea"></circle>
        <circle r="5" cx="982.58" cy="547.67" fill="#eaeaea"></circle>
        <circle r="5" cx="1093.06" cy="195.52" fill="#eaeaea"></circle>
        <circle r="5" cx="1128.74" cy="374.4" fill="#eaeaea"></circle>
        <circle r="5" cx="1119.3" cy="676" fill="#eaeaea"></circle>
        <circle r="5" cx="1275.4" cy="-76.74" fill="#eaeaea"></circle>
        <circle r="5" cx="1286.75" cy="84.66" fill="#eaeaea"></circle>
        <circle r="5" cx="1254.66" cy="252.6" fill="#eaeaea"></circle>
        <circle r="5" cx="1282.03" cy="404.7" fill="#eaeaea"></circle>
        <circle r="5" cx="1278.82" cy="533.02" fill="#eaeaea"></circle>
        <circle r="5" cx="1419.51" cy="-65.53" fill="#eaeaea"></circle>
        <circle r="5" cx="1394.17" cy="48.19" fill="#eaeaea"></circle>
        <circle r="5" cx="1389.21" cy="233.43" fill="#eaeaea"></circle>
        <circle r="5" cx="1456.73" cy="374.23" fill="#eaeaea"></circle>
        <circle r="5" cx="1403.58" cy="528.48" fill="#eaeaea"></circle>
        <circle r="5" cx="1416.21" cy="659.7" fill="#eaeaea"></circle>
        <circle r="5" cx="1546.61" cy="77.47" fill="#eaeaea"></circle>
        <circle r="5" cx="1588.91" cy="208.57" fill="#eaeaea"></circle>
        <circle r="5" cx="1606.62" cy="696.93" fill="#eaeaea"></circle>
    </g>
    <defs>
        <mask id="SvgjsMask1024">
            <rect width="1440" height="560" fill="#ffffff"></rect>
        </mask>
        <radialGradient id="SvgjsRadialGradient1025">
            <stop stop-color="#ffffff" offset="0.1"></stop>
            <stop stop-color="rgba(212, 212, 212, 1)" offset="0.2"></stop>
            <stop stop-color="rgba(212, 212, 212, 0)" offset="1"></stop>
        </radialGradient>
    </defs>
</svg>